<svg width="128" height="128" viewBox="0 0 128 128" fill="none" xmlns="http://www.w3.org/2000/svg">
<rect x="9.78699" y="23.1475" width="96" height="96" rx="24" transform="rotate(-8 9.78699 23.1475)" fill="#2563EB"/>
<path d="M64 53.3334C77.2548 53.3334 88 49.7517 88 45.3334C88 40.9151 77.2548 37.3334 64 37.3334C50.7452 37.3334 40 40.9151 40 45.3334C40 49.7517 50.7452 53.3334 64 53.3334Z" stroke="#ECEEF3" stroke-width="4" stroke-linecap="round" stroke-linejoin="round"/>
<path d="M40 45.3334V82.6667C40 84.7884 42.5286 86.8233 47.0294 88.3236C51.5303 89.8239 57.6348 90.6667 64 90.6667C70.3652 90.6667 76.4697 89.8239 80.9706 88.3236C85.4714 86.8233 88 84.7884 88 82.6667V45.3334" stroke="#ECEEF3" stroke-width="4" stroke-linecap="round" stroke-linejoin="round"/>
<path d="M40 64C40 66.1217 42.5286 68.1566 47.0294 69.6569C51.5303 71.1571 57.6348 72 64 72C70.3652 72 76.4697 71.1571 80.9706 69.6569C85.4714 68.1566 88 66.1217 88 64" stroke="#ECEEF3" stroke-width="4" stroke-linecap="round" stroke-linejoin="round"/>
</svg>
